<svg width="32" height="32" viewBox="0 0 32 32" fill="none" xmlns="http://www.w3.org/2000/svg">
<g id="logos:google-icon" clip-path="url(#clip0_526_69)">
<path id="Vector" d="M31.2523 16.2994C31.2523 14.9884 31.1459 14.0317 30.9157 13.0396H15.945V18.9569H24.7325C24.5554 20.4274 23.5987 22.642 21.4726 24.1301L21.4428 24.3282L26.1762 27.9952L26.5042 28.0279C29.516 25.2463 31.2523 21.1537 31.2523 16.2994Z" fill="#4285F4"/>
<path id="Vector_2" d="M15.9451 31.8901C20.2501 31.8901 23.8643 30.4727 26.5042 28.0279L21.4726 24.1301C20.1262 25.0691 18.319 25.7246 15.9451 25.7246C11.7285 25.7246 8.14975 22.9432 6.87403 19.0986L6.68703 19.1145L1.76514 22.9236L1.70078 23.1025C4.32282 28.3112 9.70871 31.8901 15.9451 31.8901Z" fill="#34A853"/>
<path id="Vector_3" d="M6.87401 19.0987C6.5374 18.1066 6.3426 17.0435 6.3426 15.9451C6.3426 14.8466 6.5374 13.7837 6.85631 12.7915L6.84739 12.5803L1.86382 8.70996L1.70076 8.78752C0.620092 10.949 0 13.3762 0 15.9451C0 18.5141 0.620092 20.9412 1.70076 23.1026L6.87401 19.0987Z" fill="#FBBC05"/>
<path id="Vector_4" d="M15.9451 6.16537C18.9391 6.16537 20.9588 7.45869 22.1104 8.53948L26.6105 4.14571C23.8467 1.57679 20.2501 0 15.9451 0C9.70871 0 4.32282 3.57875 1.70078 8.78742L6.85632 12.7915C8.14975 8.94693 11.7285 6.16537 15.9451 6.16537Z" fill="#EB4335"/>
</g>
<defs>
<clipPath id="clip0_526_69">
<rect width="32" height="32" fill="white"/>
</clipPath>
</defs>
</svg>
