<svg width="32" height="32" viewBox="0 0 32 32" fill="none" xmlns="http://www.w3.org/2000/svg">
<g id="RocketLaunch">
<g id="Group 2">
<path id="Vector (Stroke)" fill-rule="evenodd" clip-rule="evenodd" d="M9.14515 20.376C9.34707 20.9732 9.024 21.6202 8.42355 21.821C6.47922 22.4714 5.4459 24.0949 4.89318 25.7458C4.67371 26.4013 4.54111 27.0324 4.46143 27.5543C4.98606 27.475 5.62056 27.3431 6.27963 27.1248C7.93942 26.5751 9.57162 25.5473 10.2255 23.6133C10.4274 23.0161 11.0778 22.6947 11.6783 22.8956C12.2788 23.0964 12.6018 23.7434 12.3999 24.3406C11.4192 27.2414 8.99371 28.6309 7.00445 29.2898C5.99954 29.6226 5.05876 29.787 4.3721 29.8689C4.0271 29.9101 3.74188 29.9309 3.53925 29.9415C3.43783 29.9468 3.35678 29.9496 3.29892 29.951C3.26998 29.9517 3.24681 29.9521 3.22977 29.9523L3.20883 29.9525L3.20188 29.9525L3.19929 29.9525L3.19823 29.9525C3.19776 29.9525 3.19731 29.9525 3.19731 28.8116C2.05026 28.8116 2.05026 28.8112 2.05026 28.8107L2.05026 28.8097L2.05027 28.8071L2.0503 28.8002L2.05049 28.7793C2.0507 28.7624 2.05108 28.7393 2.0518 28.7106C2.05324 28.653 2.056 28.5724 2.06134 28.4715C2.072 28.27 2.09299 27.9863 2.13437 27.6431C2.21675 26.9601 2.38195 26.0244 2.7166 25.0248C3.37903 23.0462 4.77603 20.6337 7.69232 19.6582C8.29277 19.4574 8.94323 19.7787 9.14515 20.376ZM3.19731 28.8116H2.05026C2.05026 29.4417 2.56381 29.9525 3.19731 29.9525V28.8116Z" fill="#8381D9"/>
<path id="Vector (Stroke)_2" fill-rule="evenodd" clip-rule="evenodd" d="M28.1874 3.95496C26.856 3.76396 23.5787 3.69201 20.2248 7.02808L11.3003 15.9049L16.1733 20.7518L25.0977 11.875C28.4517 8.53897 28.3794 5.27925 28.1874 3.95496ZM28.52 1.69722C26.6889 1.43354 22.6073 1.43125 18.6026 5.41458L8.867 15.0981C8.65189 15.3121 8.53104 15.6023 8.53104 15.9049C8.53104 16.2075 8.65189 16.4977 8.867 16.7116L15.3622 23.1721C15.8101 23.6177 16.5364 23.6177 16.9843 23.1721L26.7199 13.4885C30.7246 9.50522 30.7223 5.44538 30.4572 3.6241C30.3902 3.13666 30.1645 2.68437 29.8146 2.33638C29.4648 1.9884 29.0101 1.76395 28.52 1.69722Z" fill="#8381D9"/>
<path id="Vector (Stroke)_3" fill-rule="evenodd" clip-rule="evenodd" d="M24.2885 13.1523C24.922 13.1523 25.4356 13.6632 25.4356 14.2933V23.5062L25.4355 23.5224C25.4269 24.1217 25.1816 24.6935 24.7528 25.1143L20.1238 29.7328C19.83 30.0247 19.4619 30.2319 19.059 30.3321C18.6561 30.4323 18.2333 30.4218 17.8359 30.3017C17.4385 30.1817 17.0813 29.9566 16.8025 29.6504C16.5238 29.3445 16.3338 28.9691 16.2527 28.5643C16.2526 28.564 16.2528 28.5646 16.2527 28.5643L15.0485 22.5895C14.924 21.9717 15.3265 21.3705 15.9477 21.2466C16.5688 21.1228 17.1733 21.5232 17.2978 22.141L18.5026 28.1183L23.1415 23.4899V14.2933C23.1415 13.6632 23.655 13.1523 24.2885 13.1523Z" fill="#8381D9"/>
<path id="Vector (Stroke)_4" fill-rule="evenodd" clip-rule="evenodd" d="M8.5147 6.69201L8.53103 6.69189H17.7935C18.427 6.69189 18.9405 7.2027 18.9405 7.83281C18.9405 8.46293 18.427 8.97373 17.7935 8.97373H8.54726L8.53799 8.98314L8.53793 8.98309L3.8941 13.5878L3.89589 13.5882L9.90355 14.7862C10.5247 14.91 10.9273 15.5113 10.8028 16.1291C10.6782 16.7469 10.0738 17.1473 9.45261 17.0235L3.44672 15.8259C3.44638 15.8258 3.44604 15.8257 3.44569 15.8257C3.03872 15.745 2.66137 15.556 2.35383 15.2789C2.04602 15.0015 1.8197 14.6462 1.69901 14.2509C1.57831 13.8557 1.56777 13.4352 1.66851 13.0344C1.76924 12.6336 1.97748 12.2676 2.271 11.9753L2.27272 11.9736L2.27272 11.9736L6.91433 7.371C7.33738 6.94451 7.9122 6.70055 8.5147 6.69201Z" fill="#8381D9"/>
</g>
</g>
</svg>
